<?xml version="1.0" encoding="UTF-8" standalone="no"?>
<svg width="30px" height="30px" viewBox="0 0 30 30" version="1.1" xmlns="http://www.w3.org/2000/svg" xmlns:xlink="http://www.w3.org/1999/xlink" xmlns:sketch="http://www.bohemiancoding.com/sketch/ns">
    <!-- Generator: Sketch 3.3.3 (12072) - http://www.bohemiancoding.com/sketch -->
    <title>email</title>
    <desc>Created with Sketch.</desc>
    <defs></defs>
    <g id="Symbols" stroke="none" stroke-width="1" fill="none" fill-rule="evenodd" sketch:type="MSPage">
        <g id="sprite-page" sketch:type="MSArtboardGroup" transform="translate(0.000000, -67.000000)">
            <g id="email" sketch:type="MSLayerGroup" transform="translate(0.000000, 67.000000)">
                <path d="M14.775,0 C6.615,0 0,6.6162 0,14.775 C0,22.935 6.615,29.5488 14.775,29.5488 C22.935,29.5488 29.5488,22.935 29.5488,14.775 C29.5488,6.6162 22.9344,0 14.775,0 L14.775,0 Z" id="Shape" fill="#FF0066" sketch:type="MSShapeGroup"></path>
                <g id="1439953480_common_email_envelope_mail_" transform="translate(6.000000, 8.000000)" fill="#FFFFFF" sketch:type="MSShapeGroup">
                    <g id="miu">
                        <path d="M0,1.625 L9,8.9375 L18,1.625 L18,0 L0,0 L0,1.625 L0,1.625 Z M0,11.5775299 L4.42019931,6.70114135 L0,2.74466705 L0,11.5775299 L0,11.5775299 Z M18,11.6967468 L13.4556552,6.7181015 L18,2.80358123 L18,11.6967468 L18,11.6967468 Z M9,10.3521347 L5.31818181,7.3125 L0,13 L18,13 L12.6735784,7.3125 L9,10.3521347 L9,10.3521347 Z" id="common_email_envelope_mail_glyph"></path>
                    </g>
                </g>
            </g>
        </g>
    </g>
</svg>