<?xml version="1.0" encoding="UTF-8" standalone="no"?>
<svg width="30px" height="30px" viewBox="0 0 30 30" version="1.1" xmlns="http://www.w3.org/2000/svg" xmlns:xlink="http://www.w3.org/1999/xlink" xmlns:sketch="http://www.bohemiancoding.com/sketch/ns">
    <!-- Generator: Sketch 3.3.2 (12043) - http://www.bohemiancoding.com/sketch -->
    <title>facebook-pink</title>
    <desc>Created with Sketch.</desc>
    <defs></defs>
    <g id="Symbols" stroke="none" stroke-width="1" fill="none" fill-rule="evenodd" sketch:type="MSPage">
        <g id="sprite-page" sketch:type="MSArtboardGroup" transform="translate(-30.000000, -30.000000)" fill="#FF0066">
            <g id="facebook-pink" sketch:type="MSLayerGroup" transform="translate(30.000000, 30.000000)">
                <path d="M15.2082,0.0942 C7.0482,0.0942 0.4332,6.7104 0.4332,14.8692 C0.4332,23.0292 7.0482,29.643 15.2082,29.643 C23.3682,29.643 29.9832,23.0292 29.9832,14.8692 C29.9832,6.7104 23.3676,0.0942 15.2082,0.0942 L15.2082,0.0942 Z M19.1184,14.8074 L16.56,14.8074 L16.56,23.9316 L12.768,23.9316 L12.768,14.8074 L10.9644,14.8074 L10.9644,11.586 L12.768,11.586 L12.768,9.4986 C12.768,8.0046 13.4772,5.6724 16.5954,5.6724 L19.4034,5.6832 L19.4034,8.8122 L17.3646,8.8122 C17.0316,8.8122 16.5606,8.9784 16.5606,9.6888 L16.5606,11.5866 L19.4514,11.5866 L19.1184,14.8074 L19.1184,14.8074 Z" id="Shape" sketch:type="MSShapeGroup"></path>
            </g>
        </g>
    </g>
</svg>