<?xml version="1.0" encoding="UTF-8" standalone="no"?>
<svg width="30px" height="30px" viewBox="0 0 30 30" version="1.1" xmlns="http://www.w3.org/2000/svg" xmlns:xlink="http://www.w3.org/1999/xlink" xmlns:sketch="http://www.bohemiancoding.com/sketch/ns">
    <!-- Generator: Sketch 3.3.2 (12043) - http://www.bohemiancoding.com/sketch -->
    <title>linkedin-pink</title>
    <desc>Created with Sketch.</desc>
    <defs></defs>
    <g id="Symbols" stroke="none" stroke-width="1" fill="none" fill-rule="evenodd" sketch:type="MSPage">
        <g id="sprite-page" sketch:type="MSArtboardGroup" transform="translate(-60.000000, -30.000000)" fill="#FF0066">
            <g id="linkedin-pink" sketch:type="MSLayerGroup" transform="translate(60.000000, 30.000000)">
                <g id="Group" sketch:type="MSShapeGroup">
                    <path d="M15.0134766,30 C23.2505859,30 30,23.2505859 30,15.0134766 C30,6.7490625 23.2505859,0 15.0134766,0 C6.7490625,0 0,6.7490625 0,15.0134766 C0,23.2505859 6.7490625,30 15.0134766,30 Z M10.3100391,23.4363281 L7.49326172,23.4363281 L7.49326172,10.3100391 L10.3100391,10.3100391 L10.3100391,23.4363281 Z M19.2912891,10.3100391 C21.7886133,10.3100391 23.4363281,11.7710742 23.4363281,15.0134766 L23.4363281,23.4363281 L20.6196094,23.4363281 L20.6196094,15.9426562 C20.6196094,14.1360937 19.955918,13.1264062 18.4143164,13.1264062 C16.8727148,13.1264062 15.0134766,14.4285937 15.0134766,15.9426562 L15.0134766,23.4363281 L12.1962891,23.4363281 L12.1962891,10.3100391 L15.0135352,10.3100391 L15.0135352,12.1962891 C15.9426563,11.2396289 17.325,10.3100391 19.2912891,10.3100391 Z M8.90167969,4.67648437 C9.93796875,4.67648437 10.7883398,5.52691406 10.7883398,6.56320312 C10.7883398,7.59949219 9.93791016,8.42337891 8.90167969,8.42337891 C7.86539063,8.42337891 7.01496094,7.59949219 7.01496094,6.56320312 C7.01496094,5.52691406 7.86539063,4.67648437 8.90167969,4.67648437 Z" id="Shape"></path>
                </g>
            </g>
        </g>
    </g>
</svg>