<?xml version="1.0" encoding="UTF-8" standalone="no"?>
<svg width="50px" height="50px" viewBox="0 0 50 50" version="1.1" xmlns="http://www.w3.org/2000/svg" xmlns:xlink="http://www.w3.org/1999/xlink" xmlns:sketch="http://www.bohemiancoding.com/sketch/ns">
    <!-- Generator: Sketch 3.3.2 (12043) - http://www.bohemiancoding.com/sketch -->
    <title>Logo Circle Pink</title>
    <desc>Created with Sketch.</desc>
    <defs></defs>
    <g id="Symbols" stroke="none" stroke-width="1" fill="none" fill-rule="evenodd" sketch:type="MSPage">
        <g id="sprite-page" sketch:type="MSArtboardGroup" transform="translate(-50.000000, -300.000000)" fill="#FF0066">
            <path d="M85.8171175,342.227127 C84.5564832,342.521716 83.239319,342.70222 81.9467817,342.710616 C74.8582556,342.756511 67.7690765,342.732537 60.6802705,342.731884 C60.572528,342.731884 60.4647854,342.722556 60.3239272,342.716119 L60.3239272,334.531418 L66.0187034,334.531418 L66.0187034,338.397369 C66.171222,338.415933 66.2754198,338.439627 66.3796175,338.439534 C71.089972,338.436175 75.8002332,338.454925 80.5101213,338.412575 C82.1951959,338.397463 83.7527519,337.861082 85.0867071,336.798675 C87.9060168,334.553246 88.1104011,330.919198 85.577472,328.30306 C84.1423041,326.820877 82.3630131,326.086082 80.3269123,326.032724 C78.3073228,325.979832 76.2853078,326.02069 74.2644123,326.021623 C74.221875,326.021716 74.179431,326.037201 74.0578825,326.061082 C76.1172108,328.592146 78.147528,331.087761 80.2270056,333.643545 C80.0271922,333.654366 79.8966884,333.667332 79.7663713,333.667425 C77.7298974,333.668825 75.6933302,333.660522 73.6569496,333.676754 C73.339972,333.679272 73.1492071,333.568078 72.958722,333.333657 C70.8321362,330.716679 68.696875,328.106791 66.563666,325.495317 C66.4097481,325.306884 66.253125,325.120877 66.0270989,324.848489 L66.0270989,333.63431 L60.3072295,333.63431 L60.3072295,314.72209 L65.994916,314.72209 L65.994916,323.00875 C66.0381063,323.044198 66.0812034,323.079459 66.1244869,323.11472 C66.1792444,323.00875 66.2178638,322.889627 66.291278,322.798675 C68.3716884,320.224142 70.4601213,317.655858 72.5326026,315.074981 C72.7508862,314.803153 72.971875,314.705299 73.3154384,314.708377 C75.1952892,314.724888 77.0752332,314.716213 79.0775653,314.716213 C77.2603078,317.005299 75.5020989,319.219664 73.7451026,321.432724 C73.7933302,321.47722 73.8142257,321.513321 73.835028,321.513228 C76.1934235,321.502593 78.5530317,321.632351 80.8966884,321.175168 C84.2895989,320.513321 85.4921175,316.778899 84.5403451,314.615187 C83.7854011,312.898396 82.364319,312.015187 80.601166,311.675075 C79.6159981,311.484963 78.5979011,311.395597 77.5936101,311.386735 C73.8784981,311.353993 70.1629198,311.373489 66.4473414,311.374608 C66.3260728,311.374608 66.2047108,311.387854 66.0165578,311.398769 L66.0165578,313.84681 L60.3254198,313.84681 L60.3254198,307.269198 L60.7972481,307.269198 C66.782416,307.269198 72.767584,307.245317 78.7526586,307.279832 C81.5048974,307.29569 84.2006996,307.701287 86.7163713,308.917146 C91.4935168,311.226194 91.8693563,316.142892 90.0870802,319.538507 C89.1826026,321.261828 87.8658116,322.551194 86.0211287,323.385616 C86.4895056,323.594104 86.9115205,323.775261 87.3280317,323.968358 C88.890625,324.692985 90.3326959,325.595224 91.5201026,326.862201 C93.1541511,328.605765 93.6789646,330.731325 93.6035914,333.047556 C93.4517257,337.711642 90.6028451,341.108843 85.8171175,342.227127 M74.9999534,299.999981 C61.1927705,299.999981 50.0000466,311.192799 50.0000466,324.999981 C50.0000466,338.807071 61.1927705,349.999981 74.9999534,349.999981 C88.8071362,349.999981 99.9999534,338.807071 99.9999534,324.999981 C99.9999534,311.192799 88.8071362,299.999981 74.9999534,299.999981" id="Logo-Circle-Pink" sketch:type="MSShapeGroup"></path>
        </g>
    </g>
</svg>