<?xml version="1.0" encoding="UTF-8" standalone="no"?>
<svg width="30px" height="30px" viewBox="0 0 30 30" version="1.1" xmlns="http://www.w3.org/2000/svg" xmlns:xlink="http://www.w3.org/1999/xlink" xmlns:sketch="http://www.bohemiancoding.com/sketch/ns">
    <!-- Generator: Sketch 3.3.3 (12072) - http://www.bohemiancoding.com/sketch -->
    <title>phone</title>
    <desc>Created with Sketch.</desc>
    <defs></defs>
    <g id="Symbols" stroke="none" stroke-width="1" fill="none" fill-rule="evenodd" sketch:type="MSPage">
        <g id="sprite-page" sketch:type="MSArtboardGroup" transform="translate(-30.000000, -67.000000)">
            <g id="phone" sketch:type="MSLayerGroup" transform="translate(30.000000, 67.000000)">
                <path d="M14.775,0 C6.615,0 0,6.6162 0,14.775 C0,22.935 6.615,29.5488 14.775,29.5488 C22.935,29.5488 29.5488,22.935 29.5488,14.775 C29.5488,6.6162 22.9344,0 14.775,0 L14.775,0 Z" id="Shape" fill="#FF0066" sketch:type="MSShapeGroup"></path>
                <g id="1439953601_phone" transform="translate(7.000000, 6.000000)" fill="#FFFFFF" sketch:type="MSShapeGroup">
                    <g id="Group">
                        <path d="M3.4968,0.648818182 C4.4624,0.462272727 5.0952,1.57581818 5.5768,2.34409091 C6.0456,3.09027273 6.6224,3.96572727 6.3896,4.93690909 C6.26,5.48181818 5.7784,5.77881818 5.4144,6.10036364 C5.0552,6.41781818 4.508,6.70909091 4.3752,7.19672727 C4.1584,7.98790909 4.6328,8.81836364 4.9264,9.29127273 C5.5936,10.3598182 6.4,11.3228182 7.4296,12.1827273 C7.928,12.6 8.62,13.1571818 9.3136,13.014 C10.3496,12.7996364 10.6232,11.493 11.7512,11.3187273 C12.8248,11.1526364 13.5512,11.9487273 14.1576,12.4821818 C14.7416,12.9984545 15.684,13.6595455 15.62,14.544 C15.5824,15.0520909 15.184,15.3670909 14.8384,15.6739091 C14.4872,15.9872727 14.1792,16.3390909 13.832,16.5706364 C12.9912,17.1319091 11.96,17.4068182 10.776,17.3691818 C9.6152,17.3323636 8.6904,16.929 7.8512,16.4716364 C6.2104,15.5765455 4.9136,14.3173636 3.692,12.9141818 C2.4904,11.5347273 1.3808,9.90163636 0.7672,8.09590909 C0.0016,5.841 0.4064,3.52472727 1.6456,2.07981818 C1.8552,1.83436364 2.1864,1.57827273 2.4896,1.31481818 C2.792,1.05054545 3.072,0.730636364 3.4968,0.648818182 L3.4968,0.648818182 Z" id="Shape"></path>
                    </g>
                </g>
            </g>
        </g>
    </g>
</svg>