<?xml version="1.0" encoding="UTF-8" standalone="no"?>
<svg width="129px" height="84px" viewBox="0 0 129 84" version="1.1" xmlns="http://www.w3.org/2000/svg" xmlns:xlink="http://www.w3.org/1999/xlink" xmlns:sketch="http://www.bohemiancoding.com/sketch/ns">
    <!-- Generator: Sketch 3.3 (11970) - http://www.bohemiancoding.com/sketch -->
    <title>skillcrush</title>
    <desc>Created with Sketch.</desc>
    <defs></defs>
    <g id="Portfolio-Site" stroke="none" stroke-width="1" fill="none" fill-rule="evenodd" sketch:type="MSPage">
        <g id="Mobile-Portrait" sketch:type="MSArtboardGroup" transform="translate(-11.000000, -462.000000)" fill="#F04E4C">
            <g id="skillcrush" sketch:type="MSLayerGroup" transform="translate(15.000000, 462.000000)">
                <text sketch:type="MSTextLayer" font-family="Wisdom Script AI" font-size="33" font-weight="normal">
                    <tspan x="0" y="83" fill="#E7EAF2">skillcrush</tspan>
                </text>
                <path d="M82.2481388,33.2912673 C78.4272562,40.2687009 71.0161552,45 62.5,45 C50.0735931,45 40,34.9264069 40,22.5 C40,10.0735931 50.0735931,0 62.5,0 C74.9264069,0 85,10.0735931 85,22.5 C85,24.7580087 84.667383,26.9383306 84.0484724,28.9946421 C83.6173611,28.5975153 83.1156155,28.2914975 82.66,28.17 L82.24,28.65 C79.96,31.35 77.2,33.75 74.74,35.43 C76.72,29.49 76.3,20.37 80.14,12.39 L75.46,9.87 C72.88,13.41 58.48,32.49 52.84,39.09 C53.38,39.87 54.28,40.65 55.18,41.25 C58.72,37.17 70.6,21.87 72.82,18.93 C70.36,25.41 71.68,37.05 65.74,37.05 C63.64,37.05 62.8,34.77 62.8,34.77 L58.9,36.81 C58.9,36.81 60.04,41.85 65.74,41.85 C66.34,41.85 66.88,41.79 67.48,41.73 C67.54,41.73 67.6,41.67 67.66,41.67 C72.8442093,40.9852931 77.9885526,37.50997 82.2481388,33.2912673 Z" id="Oval-15" sketch:type="MSShapeGroup"></path>
            </g>
        </g>
    </g>
</svg>