<?xml version="1.0" encoding="UTF-8" standalone="no"?>
<svg width="81px" height="51px" viewBox="0 0 81 51" version="1.1" xmlns="http://www.w3.org/2000/svg" xmlns:xlink="http://www.w3.org/1999/xlink" xmlns:sketch="http://www.bohemiancoding.com/sketch/ns">
    <!-- Generator: Sketch 3.2.2 (9983) - http://www.bohemiancoding.com/sketch -->
    <title>Treehouse + treehouse</title>
    <desc>Created with Sketch.</desc>
    <defs></defs>
    <g id="Welcome" stroke="none" stroke-width="1" fill="none" fill-rule="evenodd" sketch:type="MSPage">
        <g id="Mobile-Portrait" sketch:type="MSArtboardGroup" transform="translate(-192.000000, -317.000000)" fill="#5FCF80">
            <g id="1427924957_Treehouse" sketch:type="MSLayerGroup" transform="translate(193.000000, 317.000000)">
                <g id="Page-1">
                    <g id="Treehouse-+-treehouse">
                        <path d="M44.2656223,9.83671938 C43.6882198,11.012151 43.7673906,12.4128179 44.4982978,13.492008 L44.544343,13.5601581 C45.2765973,14.6435052 46.258794,15.6386728 46.583315,15.997689 C46.7741701,16.2055405 46.9200821,16.4637802 46.9996816,16.7613227 C47.2664624,17.7428856 46.7094496,18.7611688 45.7552352,19.0358477 C44.8010208,19.3104006 43.8110479,18.7374233 43.5441447,17.7557346 C43.4770361,17.5093361 43.4620959,17.2607331 43.4922213,17.0220819 C43.5435324,16.6165195 43.4169692,15.9559298 42.8516902,15.3074332 C42.2864113,14.6589366 41.1309939,15.8837486 40.7574273,17.1433915 C40.3665936,18.4596582 40.1307954,19.5588775 40.2013328,19.6646929 C40.2433369,19.7276782 40.2809324,19.796962 40.3176706,19.8629076 C40.841864,20.8769709 40.4646235,22.1369917 39.4810185,22.6783502 C38.4947195,23.2176303 37.2702954,22.8322863 36.7459796,21.8178451 C36.2217863,20.803278 36.5963937,19.5437611 37.5826317,19.004481 C37.6269012,18.9802316 37.6716606,18.9579349 37.7167874,18.9374647 C37.7921008,18.9033896 38.0057949,18.3738722 38.1912004,17.7484282 C38.3767898,17.1228583 38.5271104,16.6159526 38.5271104,16.6159526 C38.5469491,16.5493772 38.5641548,16.4835576 38.5798297,16.4183048 L39.5778851,12.7524347 L38.5103332,15.0063634 C38.3838313,14.5784414 38.1746682,14.5631989 37.7165425,14.9002962 C37.4402098,15.1036757 36.9833698,15.5040733 36.7602463,15.6687168 C36.3411855,15.9771558 35.9906416,16.5762089 35.8050523,16.9432243 C35.6958784,17.1592638 35.542925,17.3562819 35.3474164,17.5192878 C34.5831386,18.1572028 33.460908,18.0369639 32.8408279,17.2507815 C32.2207478,16.464725 32.3376366,15.3103305 33.1017919,14.6724784 C33.3257726,14.4854751 33.5806747,14.3636616 33.8445777,14.3045813 C34.2935801,14.2042457 35.8205435,13.2447278 36.7405301,12.5675728 C36.9052399,12.4463892 37.0434369,12.331693 37.1558558,12.2253738 L39.6122966,10.3063378 L37.472968,11.4954372 C37.472968,11.4954372 37.255294,11.4727624 36.988452,11.5017357 C36.2054377,11.5911118 35.3990948,11.7046113 35.2467535,11.9040858 C35.1566224,12.0218683 35.0493468,12.1288172 34.9251103,12.2207128 C34.2111641,12.7497893 33.215313,12.5832562 32.7009777,11.8487217 C32.18652,11.1141242 32.3485969,10.0896684 33.0625431,9.56071783 C33.3571837,9.34253683 33.6995842,9.2427051 34.0361676,9.25234183 C34.6088554,9.27123748 36.1180007,9.57986538 37.3732238,9.35311834 L37.69701,9.2941011 C38.9576825,9.06433079 40.4669503,7.93550828 41.0683551,6.77279972 C41.0683551,6.77279972 41.6572078,5.70878921 42.3835227,4.39630162 C43.1098987,3.08381403 43.0561997,1.64611172 42.2638173,1.18531131 L40.8288219,0.350756103 C40.1048337,-0.0703005172 38.9196583,-0.0710564138 38.1951192,0.349181517 L28.3173105,6.07819793 C27.5928326,6.49837286 27,7.54216514 27,8.39769438 L27,19.5981174 C27,20.4547174 27.5939348,21.5002733 28.3164533,21.9177399 L38.2000176,27.6492127 C38.9245568,28.0712142 40.1104057,28.0712142 40.8337203,27.6476381 L50.6834242,21.9193144 C51.4075348,21.4982577 52,20.4537097 52,19.5981174 L52,8.39769438 C52,7.54216514 51.4075348,6.49755407 50.6834242,6.07649734 C50.6843426,6.07851283 49.9544765,5.65021286 49.0543897,5.12894652 C48.1552215,4.60566469 46.718328,5.44721124 45.8456725,7.00867969 L44.2656223,9.83671938 Z" id="treehouse-logo" sketch:type="MSShapeGroup"></path>
                        <text id="treehouse" sketch:type="MSTextLayer" font-family="Barmeno" font-size="20" font-weight="normal" sketch:alignment="middle">
                            <tspan x="0" y="50">treehouse</tspan>
                        </text>
                    </g>
                </g>
            </g>
        </g>
    </g>
</svg>